# xmcd
#
# Track frame offsets: 
#        150
#        40713
#        64558
#        95716
#        123141
#        152672
#        209700
#        245897
#        309193
#
# Disc length: 4484 seconds
#
# Revision: 3
# Processed by: cddbd v1.5.2PL0 Copyright (c) Steve Scherf et al.
# Submitted via: ExactAudioCopyFreeDBPlugin 1.0
#
DISCID=76118209
DTITLE=Eric Clapton - Live At Hammersmith Odeon, April 27, 1977
DYEAR=1977
DGENRE=Blues Rock
TTITLE0=Tell The Truth
TTITLE1=Knocking On Heaven's Door
TTITLE2=Steady Rolling Man
TTITLE3=Can't Find My Way Home
TTITLE4=Further On Up The Road
TTITLE5=Stormy Monday
TTITLE6=Badge
TTITLE7=I Shot The Sheriff
TTITLE8=Layla
EXTD=YEAR: 1977
EXTT0=
EXTT1=
EXTT2=
EXTT3=
EXTT4=
EXTT5=
EXTT6=
EXTT7=
EXTT8=
PLAYORDER=
